<svg width="106" height="117" viewBox="0 0 106 117" fill="none" xmlns="http://www.w3.org/2000/svg">
<path d="M53.3805 96.3928C51.4394 96.3928 49.9939 95.319 49.9939 93.0061V89.1652C44.6248 88.6696 39.7514 86.8111 36.4886 83.9613C33.8867 81.7311 32.3586 79.0879 32.3586 76.6512C32.3586 74.2144 33.9693 72.7689 36.1995 72.7689C37.6038 72.7689 38.4711 73.1819 40.4122 75.3709C44.1705 79.8313 48.3006 81.8137 53.7109 81.8137C60.8146 81.8137 64.9034 78.551 64.9034 73.3058C64.9034 69.2584 62.3014 66.9043 56.0651 65.3761L47.1855 63.1872C38.182 61.0809 33.3498 55.7531 33.3498 48.0713C33.3498 39.1504 39.9579 32.9553 50.283 32.0054V28.4122C50.283 26.0994 51.7285 25.0256 53.6283 25.0256C55.5282 25.0256 57.015 26.0994 57.015 28.4122V32.1293C61.9297 32.7901 66.3489 34.6486 69.3225 37.5396C71.7179 39.8112 73.1222 42.4131 73.1222 44.6846C73.1222 46.8735 71.594 48.2778 69.529 48.2778C67.877 48.2778 66.6793 47.6169 64.986 45.6345C61.3928 41.1741 58.0062 39.3982 53.0088 39.3982C46.7312 39.3982 42.6837 42.7022 42.6837 47.4517C42.6837 51.2514 45.3682 53.9772 50.6134 55.1749L59.3691 57.2813C69.4464 59.6354 74.196 64.5088 74.196 72.4798C74.196 81.7311 67.5053 88.0914 56.6846 89.2065V93.0061C56.6846 95.319 55.2804 96.3928 53.3805 96.3928Z" fill="#D3D3D3"/>
<path d="M53.7085 23.6465L53.7085 93.1256" stroke="#D3D3D3" stroke-width="7.55208" stroke-linecap="round"/>
<path d="M14.4 48.25C14.4 49.1337 15.1163 49.85 16 49.85C16.8837 49.85 17.6 49.1337 17.6 48.25H14.4ZM7.24628 28.5059C6.69727 29.1983 6.81352 30.2047 7.50593 30.7537C8.19834 31.3027 9.20471 31.1865 9.75372 30.4941L7.24628 28.5059ZM11.121 26.1944L9.86724 25.2004L11.121 26.1944ZM20.879 26.1944L19.6253 27.1885H19.6253L20.879 26.1944ZM22.2463 30.4941C22.7953 31.1865 23.8017 31.3027 24.4941 30.7537C25.1865 30.2047 25.3027 29.1983 24.7537 28.5059L22.2463 30.4941ZM15.53 22.0373L15.2783 20.4572L15.2783 20.4572L15.53 22.0373ZM16.47 22.0373L16.7218 20.4572L16.7217 20.4572L16.47 22.0373ZM17.6 48.25V23.875H14.4V48.25H17.6ZM9.75372 30.4941L12.3747 27.1885L9.86724 25.2004L7.24628 28.5059L9.75372 30.4941ZM19.6253 27.1885L22.2463 30.4941L24.7537 28.5059L22.1328 25.2004L19.6253 27.1885ZM12.3747 27.1885C13.4441 25.8398 14.1627 24.9374 14.7652 24.3326C15.3605 23.7349 15.643 23.6395 15.7817 23.6174L15.2783 20.4572C14.1432 20.6381 13.2662 21.3031 12.4981 22.0742C11.737 22.8382 10.888 23.9129 9.86724 25.2004L12.3747 27.1885ZM22.1328 25.2004C21.112 23.9129 20.263 22.8382 19.5019 22.0742C18.7338 21.3031 17.8568 20.6381 16.7218 20.4572L16.2183 23.6174C16.357 23.6395 16.6395 23.7349 17.2348 24.3326C17.8373 24.9374 18.5559 25.8398 19.6253 27.1885L22.1328 25.2004ZM15.7817 23.6174C15.8548 23.6057 15.9276 23.6 16 23.6L16 20.4C15.7584 20.4 15.5173 20.4191 15.2783 20.4572L15.7817 23.6174ZM16 23.6C16.0724 23.6 16.1452 23.6057 16.2183 23.6174L16.7217 20.4572C16.4827 20.4191 16.2416 20.4 16 20.4L16 23.6ZM17.6 23.875V22H14.4V23.875H17.6Z" fill="#C2C2C2"/>
<path d="M88.4 48.25C88.4 49.1337 89.1163 49.85 90 49.85C90.8837 49.85 91.6 49.1337 91.6 48.25H88.4ZM81.2463 28.5059C80.6973 29.1983 80.8135 30.2047 81.5059 30.7537C82.1983 31.3027 83.2047 31.1865 83.7537 30.4941L81.2463 28.5059ZM85.121 26.1944L83.8672 25.2004L85.121 26.1944ZM94.879 26.1944L93.6253 27.1885H93.6253L94.879 26.1944ZM96.2463 30.4941C96.7953 31.1865 97.8017 31.3027 98.4941 30.7537C99.1865 30.2047 99.3027 29.1983 98.7537 28.5059L96.2463 30.4941ZM89.53 22.0373L89.2783 20.4572L89.2783 20.4572L89.53 22.0373ZM90.47 22.0373L90.7218 20.4572L90.7217 20.4572L90.47 22.0373ZM91.6 48.25V23.875H88.4V48.25H91.6ZM83.7537 30.4941L86.3747 27.1885L83.8672 25.2004L81.2463 28.5059L83.7537 30.4941ZM93.6253 27.1885L96.2463 30.4941L98.7537 28.5059L96.1328 25.2004L93.6253 27.1885ZM86.3747 27.1885C87.4441 25.8398 88.1627 24.9374 88.7652 24.3326C89.3605 23.7349 89.643 23.6395 89.7817 23.6174L89.2783 20.4572C88.1432 20.6381 87.2662 21.3031 86.4981 22.0742C85.737 22.8382 84.888 23.9129 83.8672 25.2004L86.3747 27.1885ZM96.1328 25.2004C95.112 23.9129 94.263 22.8382 93.5019 22.0742C92.7338 21.3031 91.8568 20.6381 90.7218 20.4572L90.2183 23.6174C90.357 23.6395 90.6395 23.7349 91.2348 24.3326C91.8373 24.9374 92.5559 25.8398 93.6253 27.1885L96.1328 25.2004ZM89.7817 23.6174C89.8548 23.6057 89.9276 23.6 90 23.6L90 20.4C89.7584 20.4 89.5173 20.4191 89.2783 20.4572L89.7817 23.6174ZM90 23.6C90.0724 23.6 90.1452 23.6057 90.2183 23.6174L90.7217 20.4572C90.4827 20.4191 90.2416 20.4 90 20.4L90 23.6ZM91.6 23.875V22H88.4V23.875H91.6Z" fill="#C2C2C2"/>
<path d="M31.8317 107.551L31.294 110.946H31.294L31.8317 107.551ZM12.7821 88.5016L16.1773 87.9639L12.7821 88.5016ZM94.7179 88.5016L98.113 89.0394V89.0394L94.7179 88.5016ZM75.6683 107.551L76.206 110.946H76.206L75.6683 107.551ZM93.1669 59.9355C92.0267 58.4176 89.8718 58.1113 88.3539 59.2515C86.8359 60.3917 86.5297 62.5465 87.6698 64.0645L93.1669 59.9355ZM19.8302 64.0645C20.9704 62.5465 20.6641 60.3917 19.1461 59.2515C17.6282 58.1113 15.4733 58.4176 14.3331 59.9355L19.8302 64.0645ZM91.5625 75.75V80.3333H98.4375V75.75H91.5625ZM67.5 104.396H40V111.271H67.5V104.396ZM15.9375 80.3333V75.75H9.0625V80.3333H15.9375ZM40 104.396C35.6107 104.396 33.8163 104.385 32.3694 104.156L31.294 110.946C33.4099 111.282 35.8734 111.271 40 111.271V104.396ZM9.0625 80.3333C9.0625 84.4599 9.05183 86.9234 9.38696 89.0394L16.1773 87.9639C15.9482 86.5171 15.9375 84.7226 15.9375 80.3333H9.0625ZM32.3695 104.156C24.0345 102.836 17.4975 96.2989 16.1773 87.9639L9.38696 89.0394C11.173 100.316 20.0172 109.16 31.294 110.946L32.3695 104.156ZM91.5625 80.3333C91.5625 84.7226 91.5518 86.5171 91.3227 87.9639L98.113 89.0394C98.4482 86.9234 98.4375 84.4599 98.4375 80.3333H91.5625ZM67.5 111.271C71.6266 111.271 74.0901 111.282 76.206 110.946L75.1306 104.156C73.6837 104.385 71.8893 104.396 67.5 104.396V111.271ZM91.3227 87.9639C90.0026 96.2989 83.4655 102.836 75.1306 104.156L76.206 110.946C87.4828 109.16 96.327 100.316 98.113 89.0394L91.3227 87.9639ZM98.4375 75.75C98.4375 69.8211 96.4755 64.3405 93.1669 59.9355L87.6698 64.0645C90.115 67.3198 91.5625 71.3609 91.5625 75.75H98.4375ZM15.9375 75.75C15.9375 71.3609 17.385 67.3198 19.8302 64.0645L14.3331 59.9355C11.0245 64.3405 9.0625 69.8211 9.0625 75.75H15.9375Z" fill="#D3D3D3"/>
</svg>
