<svg width="82" height="90" viewBox="0 0 82 90" fill="none" xmlns="http://www.w3.org/2000/svg">
<g clip-path="url(#clip0_6439_21602)">
<g clip-path="url(#clip1_6439_21602)">
<path fill-rule="evenodd" clip-rule="evenodd" d="M62.7335 0.450921C58.5711 -5.29488e-05 53.3245 -2.92776e-05 46.6314 4.82295e-07H46.3015C39.6084 -2.92776e-05 34.3618 -5.29488e-05 30.1994 0.450921C25.9516 0.911134 22.5099 1.86714 19.5713 4.00216C17.7923 5.29469 16.2278 6.85918 14.9353 8.63819C12.8002 11.5768 11.8442 15.0185 11.384 19.2663C10.9331 23.4287 10.9331 28.6753 10.9331 35.3684V42.9871C10.9331 49.6803 10.9331 54.9268 11.384 59.0893C11.8442 63.337 12.8002 66.7788 14.9353 69.7174C16.2278 71.4964 17.7923 73.0609 19.5713 74.3534C22.5099 76.4884 25.9516 77.4444 30.1994 77.9046C34.3618 78.3556 39.6082 78.3556 46.3012 78.3556H46.6314C53.3244 78.3556 58.5711 78.3556 62.7335 77.9046C66.9812 77.4444 70.423 76.4884 73.3616 74.3534C75.1406 73.0609 76.7051 71.4964 77.9976 69.7174C80.1326 66.7788 81.0886 63.337 81.5489 59.0893C81.9998 54.9269 81.9998 49.6805 81.9998 42.9875V35.3683C81.9998 28.6754 81.9998 23.4286 81.5489 19.2663C81.0886 15.0185 80.1326 11.5768 77.9976 8.63819C76.7051 6.85917 75.1406 5.29468 73.3616 4.00216C70.423 1.86714 66.9812 0.911134 62.7335 0.450921ZM22.7845 8.42478C24.6359 7.07967 27.0056 6.2956 30.7882 5.88578C34.622 5.47042 39.5727 5.46667 46.4664 5.46667C53.3602 5.46667 58.3109 5.47042 62.1447 5.88578C65.9273 6.2956 68.297 7.07967 70.1484 8.42478C71.4633 9.38013 72.6196 10.5365 73.575 11.8514C74.9201 13.7028 75.7042 16.0725 76.114 19.8551C76.5294 23.6889 76.5331 28.6396 76.5331 35.5333V42.8222C76.5331 49.716 76.5294 54.6667 76.114 58.5005C75.7042 62.2831 74.9201 64.6527 73.575 66.5041C72.6196 67.8191 71.4633 68.9754 70.1484 69.9308C68.297 71.2759 65.9273 72.06 62.1447 72.4698C58.3109 72.8851 53.3602 72.8889 46.4664 72.8889C39.5727 72.8889 34.622 72.8851 30.7882 72.4698C27.0056 72.06 24.6359 71.2759 22.7845 69.9308C21.4696 68.9754 20.3132 67.8191 19.3579 66.5041C18.0128 64.6527 17.2287 62.2831 16.8189 58.5005C16.4035 54.6667 16.3998 49.716 16.3998 42.8222V35.5333C16.3998 28.6396 16.4035 23.6889 16.8189 19.8551C17.2287 16.0725 18.0128 13.7028 19.3579 11.8514C20.3132 10.5365 21.4696 9.38013 22.7845 8.42478Z" fill="#D3D3D3"/>
</g>
<g clip-path="url(#clip2_6439_21602)">
<rect y="10.9316" width="71.0667" height="78.3556" rx="21.8667" fill="#FCFCFC"/>
<path d="M20.9556 32.7983C19.446 32.7983 18.2222 34.0221 18.2222 35.5316C18.2222 37.0412 19.446 38.265 20.9556 38.265H31.8889C33.3985 38.265 34.6222 37.0412 34.6222 35.5316C34.6222 34.0221 33.3985 32.7983 31.8889 32.7983H20.9556Z" fill="#D3D3D3"/>
<path d="M20.9556 47.3761C19.446 47.3761 18.2222 48.5998 18.2222 50.1094C18.2222 51.619 19.446 52.8428 20.9556 52.8428H50.1111C51.6207 52.8428 52.8444 51.619 52.8444 50.1094C52.8444 48.5998 51.6207 47.3761 50.1111 47.3761H20.9556Z" fill="#D3D3D3"/>
<path d="M20.9556 61.9539C19.446 61.9539 18.2222 63.1776 18.2222 64.6872C18.2222 66.1968 19.446 67.4205 20.9556 67.4205H31.8889C33.3985 67.4205 34.6222 66.1968 34.6222 64.6872C34.6222 63.1776 33.3985 61.9539 31.8889 61.9539H20.9556Z" fill="#D3D3D3"/>
<path fill-rule="evenodd" clip-rule="evenodd" d="M46.5603 11.0387C43.4362 10.9316 39.8014 10.9316 35.5737 10.9316H35.3684C28.6753 10.9316 23.4287 10.9316 19.2663 11.3826C15.0185 11.8428 11.5768 12.7988 8.63819 14.9338C6.85918 16.2263 5.29469 17.7908 4.00216 19.5698C1.86714 22.5084 0.911134 25.9502 0.450921 30.1979C-5.29488e-05 34.3604 -2.92776e-05 39.6069 4.82298e-07 46.3001V53.9188C-2.92776e-05 60.6119 -5.29488e-05 65.8585 0.450921 70.0209C0.911134 74.2687 1.86714 77.7104 4.00216 80.649C5.29469 82.428 6.85917 83.9925 8.63819 85.285C11.5768 87.4201 15.0185 88.3761 19.2663 88.8363C23.4286 89.2872 28.6751 89.2872 35.3681 89.2872H35.6983C42.3913 89.2872 47.638 89.2872 51.8004 88.8363C56.0481 88.3761 59.4899 87.4201 62.4285 85.285C64.2075 83.9925 65.772 82.428 67.0645 80.649C69.1995 77.7104 70.1555 74.2687 70.6157 70.0209C71.0667 65.8585 71.0667 60.6121 71.0667 53.9191V46.4248C71.0667 42.197 71.0667 38.5621 70.9596 35.438C70.7257 28.6104 69.9868 23.5921 67.0645 19.5698C65.772 17.7908 64.2075 16.2263 62.4285 14.9338C58.4062 12.0115 53.3879 11.2726 46.5603 11.0387ZM11.8514 19.3564C13.7028 18.0113 16.0725 17.2272 19.8551 16.8174C23.6889 16.4021 28.6396 16.3983 35.5333 16.3983C38.6251 16.3983 41.3345 16.3985 43.74 16.4377C43.7559 18.1676 43.8097 19.441 43.9913 20.5876C45.4115 29.5543 52.444 36.5868 61.4107 38.007C62.5573 38.1886 63.8307 38.2424 65.5606 38.2583C65.5998 40.6638 65.6 43.3732 65.6 46.465V53.7539C65.6 60.6476 65.5962 65.5983 65.1809 69.4321C64.7711 73.2147 63.987 75.5844 62.6419 77.4358C61.6865 78.7507 60.5302 79.9071 59.2153 80.8624C57.3639 82.2075 54.9942 82.9916 51.2116 83.4014C47.3778 83.8168 42.4271 83.8205 35.5333 83.8205C28.6396 83.8205 23.6889 83.8168 19.8551 83.4014C16.0725 82.9916 13.7028 82.2075 11.8514 80.8624C10.5365 79.9071 9.38013 78.7507 8.42478 77.4358C7.07967 75.5844 6.2956 73.2147 5.88578 69.4321C5.47042 65.5983 5.46667 60.6476 5.46667 53.7539V46.465C5.46667 39.5712 5.47042 34.6205 5.88578 30.7867C6.2956 27.0041 7.07967 24.6344 8.42478 22.7831C9.38013 21.4681 10.5365 20.3118 11.8514 19.3564ZM49.3907 19.7324C49.2723 18.9852 49.2272 18.1199 49.2101 16.6441C54.1678 16.9858 57.0306 17.7692 59.2153 19.3564C60.5302 20.3118 61.6865 21.4681 62.6419 22.7831C64.2291 24.9677 65.0125 27.8305 65.3542 32.7882C63.8784 32.7711 63.0131 32.726 62.2659 32.6076C55.6383 31.5579 50.4404 26.36 49.3907 19.7324Z" fill="#D3D3D3"/>
</g>
</g>
<defs>
<clipPath id="clip0_6439_21602">
<rect width="82" height="89.2889" fill="white"/>
</clipPath>
<clipPath id="clip1_6439_21602">
<rect width="71.0667" height="78.3556" fill="white" transform="translate(10.9331)"/>
</clipPath>
<clipPath id="clip2_6439_21602">
<rect y="10.9316" width="71.0667" height="78.3556" rx="21.8667" fill="white"/>
</clipPath>
</defs>
</svg>
